<svg xmlns="http://www.w3.org/2000/svg" width="28" height="28" viewBox="0 0 28 28" fill="none">
  <path d="M13.8857 1.21045C14.2469 0.929585 14.7531 0.929585 15.1143 1.21045L25.6143 9.37646C25.8578 9.56592 26 9.85795 26 10.1665V22.9995C26 23.8835 25.6485 24.7318 25.0234 25.3569C24.3984 25.9817 23.5508 26.3324 22.667 26.3325H18.0449C18.0397 26.3325 18.0345 26.3316 18.0293 26.3315C18.0196 26.3318 18.0098 26.3335 18 26.3335C17.448 26.3335 17.0004 25.8854 17 25.3335V14.6665H12.0039L12.0449 25.3296V25.3325C12.0449 25.3685 12.0428 25.404 12.0391 25.439C12.0357 25.471 12.0308 25.5026 12.0244 25.5337C12.0082 25.613 11.981 25.688 11.9473 25.7593C11.8291 26.0089 11.6126 26.2025 11.3457 26.2866C11.3422 26.2877 11.3385 26.2885 11.335 26.2896C11.2443 26.317 11.1484 26.3331 11.0488 26.3335C11.042 26.3335 11.0351 26.3326 11.0283 26.3325H6.33301C5.44925 26.3324 4.60157 25.9817 3.97656 25.3569C3.35147 24.7318 3.00003 23.8835 3 22.9995V10.1665C3 9.85795 3.1422 9.56592 3.38574 9.37646L13.8857 1.21045ZM5 10.6548V22.9995C5.00003 23.353 5.1407 23.6919 5.39062 23.9419C5.64059 24.1918 5.97953 24.3324 6.33301 24.3325H10.041L10 13.6704C9.99897 13.4046 10.1045 13.1488 10.292 12.9604C10.4796 12.7723 10.7343 12.6665 11 12.6665H18C18.5523 12.6665 19 13.1142 19 13.6665V24.3325H22.667C23.0205 24.3324 23.3594 24.1918 23.6094 23.9419C23.8593 23.6919 24 23.353 24 22.9995V10.6548L14.5 3.26611L5 10.6548Z" fill="#D4D4D4"/>
</svg>