<svg width="28" height="28" viewBox="0 0 28 28" fill="none" xmlns="http://www.w3.org/2000/svg">
<path d="M13.8857 1.21045C14.2468 0.929729 14.7532 0.929729 15.1143 1.21045L25.6143 9.37646C25.8577 9.56587 25.9999 9.85808 26 10.1665V22.9995C25.9999 23.8834 25.6484 24.7319 25.0234 25.3569C24.3984 25.9817 23.5507 26.3324 22.667 26.3325H18.0449C18.0407 26.3325 18.0365 26.3316 18.0322 26.3315C18.0215 26.3319 18.0108 26.3335 18 26.3335C17.4479 26.3335 17.0003 25.8855 17 25.3335V14.6665H12.0039L12.0449 25.3296V25.3325C12.0449 25.4375 12.029 25.5393 11.999 25.6343C11.8716 26.038 11.4948 26.3318 11.0488 26.3335C11.042 26.3335 11.0351 26.3326 11.0283 26.3325H6.33301C5.44928 26.3324 4.60156 25.9817 3.97656 25.3569C3.35159 24.7319 3.00007 23.8834 3 22.9995V10.1665C3.00009 9.85808 3.14232 9.56587 3.38574 9.37646L13.8857 1.21045ZM5 10.6548V22.9995C5.00007 23.3529 5.14083 23.6919 5.39062 23.9419C5.64058 24.1918 5.97956 24.3324 6.33301 24.3325H10.041L10 13.6704C9.99897 13.4046 10.1044 13.1488 10.292 12.9604C10.4796 12.7723 10.7343 12.6665 11 12.6665H18C18.5523 12.6665 19 13.1142 19 13.6665V24.3325H22.667C23.0204 24.3324 23.3594 24.1918 23.6094 23.9419C23.8592 23.6919 23.9999 23.3529 24 22.9995V10.6548L14.5 3.26611L5 10.6548Z" fill="#ED5047"/>
</svg>
