<svg xmlns="http://www.w3.org/2000/svg" width="28" height="28" viewBox="0 0 28 28" fill="none">
  <path d="M13.8857 1.20996C14.2467 0.929365 14.7533 0.929365 15.1143 1.20996L25.6143 9.37598C25.8577 9.56532 25.9998 9.85763 26 10.166V22.999C26 23.883 25.6484 24.7314 25.0234 25.3564C24.3984 25.9813 23.5508 26.3319 22.667 26.332H18.0449C18.0407 26.332 18.0365 26.3311 18.0322 26.3311C18.0215 26.3314 18.0108 26.333 18 26.333C17.4478 26.333 17.0002 25.8851 17 25.333V14.666H12.0039L12.0449 25.3291V25.332C12.0449 25.437 12.029 25.5388 11.999 25.6338C11.8717 26.0376 11.4948 26.3313 11.0488 26.333C11.042 26.333 11.0351 26.3321 11.0283 26.332H6.33301C5.44922 26.3319 4.60158 25.9813 3.97656 25.3564C3.35161 24.7314 3 23.883 3 22.999V10.166C3.00016 9.85763 3.14231 9.56532 3.38574 9.37598L13.8857 1.20996Z" fill="#ED5047"/>
</svg>