<svg xmlns="http://www.w3.org/2000/svg" width="28" height="28" viewBox="0 0 28 28" fill="none">
  <path d="M13.5366 19.7805V24.5M8.29272 24.5H18.7805" stroke="#D4D4D4" stroke-width="2" stroke-linecap="round"/>
  <path d="M2 4.82979C2 3.81923 2.81922 3 3.82979 3H6.19512V8.49361L6.71951 10.4913V11.9895L7.2439 13.4878L6.14077 13.3827C3.79299 13.1591 2 11.1873 2 8.82888V4.82979Z" stroke="#D4D4D4" stroke-width="2"/>
  <path d="M25.0732 4.82979C25.0732 3.81923 24.254 3 23.2435 3H20.8781V8.49361L20.3537 10.4913V11.9895L19.8293 13.4878L20.9325 13.3827C23.2803 13.1591 25.0732 11.1873 25.0732 8.82888V4.82979Z" stroke="#D4D4D4" stroke-width="2"/>
  <path d="M6.19507 3H20.878V11.3903C20.878 15.4448 17.5911 18.7317 13.5365 18.7317C9.48195 18.7317 6.19507 15.4448 6.19507 11.3902V3Z" fill="white" stroke="#D4D4D4" stroke-width="2"/>
</svg>