<svg width="28" height="28" viewBox="0 0 28 28" fill="none" xmlns="http://www.w3.org/2000/svg">
<path d="M13.5366 19.7805V24.5M8.29272 24.5H18.7805" stroke="#D4D4D4" stroke-width="2" stroke-linecap="round"/>
<path d="M23.2432 2C24.806 2 26.0732 3.26723 26.0732 4.83008V8.8291C26.0731 11.5973 24.0458 13.9277 21.3398 14.3389C21.6023 13.6448 21.7744 12.9069 21.8428 12.1387C23.1595 11.6045 24.0732 10.3165 24.0732 8.8291V4.83008C24.0732 4.3718 23.7014 4 23.2432 4H21.8779V2H23.2432Z" fill="#D4D4D4"/>
<path d="M5.19531 2V4H3.83008C3.3718 4 3 4.3718 3 4.83008V8.8291C3.00009 10.3161 3.91323 11.6043 5.22949 12.1387C5.29779 12.9065 5.47022 13.6441 5.73242 14.3379C3.02702 13.9263 1.00011 11.597 1 8.8291V4.83008C1 3.26723 2.26723 2 3.83008 2H5.19531Z" fill="#D4D4D4"/>
<path d="M6.19507 3H20.878V11.3903C20.878 15.4448 17.5911 18.7317 13.5365 18.7317V18.7317V18.7317C9.48195 18.7317 6.19507 15.4448 6.19507 11.3902V3Z" stroke="#D4D4D4" stroke-width="2"/>
</svg>
