<svg xmlns="http://www.w3.org/2000/svg" width="24" height="24" viewBox="0 0 24 24" fill="none">
<path d="M21.3271 8.50012C21.3271 7.92551 21.2131 7.35667 20.9932 6.82581C20.7733 6.29515 20.4516 5.81252 20.0454 5.40637L20.0439 5.40491C19.6378 4.99864 19.1553 4.6756 18.6245 4.45569C18.0938 4.23585 17.5247 4.12318 16.9502 4.12317C16.3757 4.12317 15.8066 4.23587 15.2759 4.45569C14.7452 4.67559 14.2626 4.99868 13.8564 5.40491L12.7959 6.46545C12.3566 6.90472 11.6444 6.90458 11.2051 6.46545L10.1445 5.40491C9.32401 4.58456 8.21105 4.12334 7.05078 4.12317C5.89024 4.12317 4.77625 4.58436 3.95557 5.40491C3.13485 6.22562 2.67383 7.33946 2.67383 8.50012C2.67386 9.66058 3.13509 10.7732 3.95557 11.5939L12.0005 19.6388L20.0439 11.5939C20.4502 11.1877 20.7733 10.7051 20.9932 10.1744C21.2131 9.64355 21.3271 9.07477 21.3271 8.50012ZM23.5771 8.50012C23.5771 9.37035 23.4049 10.2318 23.0718 11.0358C22.7387 11.8397 22.2502 12.5695 21.6348 13.1847L12.7959 22.025C12.3566 22.4644 11.6444 22.4644 11.2051 22.025L2.36475 13.1862C1.12211 11.9435 0.423862 10.2575 0.423828 8.50012C0.423828 6.74272 1.12208 5.05676 2.36475 3.81409C3.60739 2.57158 5.29351 1.87317 7.05078 1.87317C8.80779 1.87334 10.4929 2.57178 11.7354 3.81409L11.999 4.07776L12.2642 3.81409C12.8794 3.19865 13.6106 2.71018 14.4146 2.37708C15.2184 2.04411 16.0801 1.87317 16.9502 1.87317C17.8203 1.87318 18.682 2.04408 19.4858 2.37708C20.2898 2.71019 21.021 3.19861 21.6362 3.81409C22.2517 4.42932 22.7386 5.16049 23.0718 5.96448C23.4049 6.7684 23.5771 7.62993 23.5771 8.50012Z" fill="#F2433A"/>
<path d="M3 10.5L12 21L17.25 15.75L21.75 9.75L21 5.25L18.75 3.75H15.75L11.25 5.25L8.25 3L3 5.25L2.25 8.25L3 10.5Z" fill="#F2433A"/>
</svg>