<svg xmlns="http://www.w3.org/2000/svg" width="34" height="17" viewBox="0 0 34 17" fill="none">
  <path d="M24.8696 7.58022C23.6029 7.58022 22.5096 7.50688 21.5896 7.36022C20.6829 7.20022 19.9496 6.96022 19.3896 6.64022C18.8162 6.34689 18.3896 5.98688 18.1096 5.56022C17.8296 5.13355 17.6896 4.64022 17.6896 4.08022C17.6896 3.56022 17.8296 3.08022 18.1096 2.64022C18.3896 2.18688 18.8162 1.78022 19.3896 1.42022C19.9496 1.08688 20.6829 0.833552 21.5896 0.660218C22.4962 0.473552 23.5896 0.380219 24.8696 0.380219C26.1229 0.380219 27.2029 0.473552 28.1096 0.660218C29.0296 0.833552 29.7762 1.08688 30.3496 1.42022C30.9096 1.78022 31.3296 2.18688 31.6096 2.64022C31.9029 3.08022 32.0496 3.56022 32.0496 4.08022C32.0496 4.64022 31.9029 5.13355 31.6096 5.56022C31.3296 5.98688 30.9096 6.34689 30.3496 6.64022C29.7762 6.96022 29.0296 7.20022 28.1096 7.36022C27.2029 7.50688 26.1229 7.58022 24.8696 7.58022ZM24.8696 5.12022C25.5096 5.12022 26.0496 5.10022 26.4896 5.06022C26.9429 5.00689 27.3029 4.92022 27.5696 4.80022C27.8096 4.70688 27.9962 4.59355 28.1296 4.46022C28.2629 4.32689 28.3296 4.16689 28.3296 3.98022C28.3296 3.82022 28.2629 3.67355 28.1296 3.54022C27.9962 3.40689 27.8096 3.28022 27.5696 3.16022C27.3029 3.06688 26.9429 2.99355 26.4896 2.94022C26.0496 2.87355 25.5096 2.84022 24.8696 2.84022C24.2029 2.84022 23.6429 2.87355 23.1896 2.94022C22.7496 2.99355 22.4096 3.06688 22.1696 3.16022C21.9029 3.28022 21.7096 3.40689 21.5896 3.54022C21.4696 3.67355 21.4096 3.82022 21.4096 3.98022C21.4096 4.16689 21.4696 4.32689 21.5896 4.46022C21.7096 4.59355 21.9029 4.70688 22.1696 4.80022C22.4096 4.92022 22.7496 5.00689 23.1896 5.06022C23.6429 5.10022 24.2029 5.12022 24.8696 5.12022ZM33.0896 10.7002H16.5496V8.10022H33.0896V10.7002ZM32.1096 17.0002H17.4096V11.3602H32.1096V17.0002ZM28.6096 14.6002V13.7602H20.9096V14.6002H28.6096Z" fill="#F2433A"/>
  <path d="M4.94 4.10022C4.83333 4.10022 4.72667 4.12022 4.62 4.16022C4.52667 4.18688 4.44 4.22022 4.36 4.26022C4.25333 4.32688 4.16 4.41355 4.08 4.52022C4 4.61355 3.92667 4.74022 3.86 4.90022C3.78 5.06022 3.71333 5.26022 3.66 5.50022C3.62 5.72688 3.58 5.98022 3.54 6.26022C3.48667 6.56688 3.44667 6.92022 3.42 7.32022C3.40667 7.70688 3.4 8.14022 3.4 8.62022C3.4 9.12688 3.40667 9.58022 3.42 9.98022C3.44667 10.3669 3.48667 10.7002 3.54 10.9802C3.58 11.2869 3.62 11.5536 3.66 11.7802C3.71333 12.0069 3.78 12.2002 3.86 12.3602C3.92667 12.5202 4 12.6536 4.08 12.7602C4.16 12.8669 4.25333 12.9402 4.36 12.9802C4.44 13.0469 4.52667 13.0936 4.62 13.1202C4.72667 13.1336 4.83333 13.1402 4.94 13.1402C5.02 13.1402 5.10667 13.1336 5.2 13.1202C5.29333 13.0936 5.39333 13.0469 5.5 12.9802C5.58 12.9402 5.66 12.8669 5.74 12.7602C5.83333 12.6536 5.92 12.5202 6 12.3602C6.05333 12.2002 6.10667 12.0069 6.16 11.7802C6.22667 11.5536 6.28667 11.2869 6.34 10.9802C6.38 10.7002 6.41333 10.3669 6.44 9.98022C6.46667 9.58022 6.48 9.12688 6.48 8.62022C6.48 8.14022 6.46667 7.70688 6.44 7.32022C6.41333 6.92022 6.38 6.56688 6.34 6.26022C6.28667 5.98022 6.22667 5.72688 6.16 5.50022C6.10667 5.26022 6.05333 5.06022 6 4.90022C5.92 4.74022 5.83333 4.61355 5.74 4.52022C5.66 4.41355 5.58 4.32688 5.5 4.26022C5.39333 4.22022 5.29333 4.18688 5.2 4.16022C5.10667 4.12022 5.02 4.10022 4.94 4.10022ZM4.94 0.800217C5.31333 0.800217 5.66667 0.840217 6 0.920218C6.34667 0.986884 6.68 1.08688 7 1.22022C7.29333 1.38022 7.56667 1.57355 7.82 1.80022C8.07333 2.02688 8.31333 2.29355 8.54 2.60022C8.74 2.92022 8.92667 3.28688 9.1 3.70022C9.27333 4.10022 9.42 4.54022 9.54 5.02022C9.64667 5.52688 9.72667 6.08022 9.78 6.68022C9.84667 7.28022 9.88 7.92688 9.88 8.62022C9.88 9.34022 9.84667 10.0069 9.78 10.6202C9.72667 11.2202 9.64667 11.7602 9.54 12.2402C9.42 12.7469 9.27333 13.2002 9.1 13.6002C8.92667 14.0002 8.74 14.3536 8.54 14.6602C8.31333 14.9802 8.07333 15.2536 7.82 15.4802C7.56667 15.7069 7.29333 15.8869 7 16.0202C6.68 16.1669 6.34667 16.2736 6 16.3402C5.66667 16.4069 5.31333 16.4402 4.94 16.4402C4.54 16.4402 4.16667 16.4069 3.82 16.3402C3.48667 16.2736 3.17333 16.1669 2.88 16.0202C2.56 15.8869 2.26667 15.7069 2 15.4802C1.74667 15.2536 1.52 14.9802 1.32 14.6602C1.09333 14.3536 0.9 14.0002 0.74 13.6002C0.58 13.2002 0.446667 12.7469 0.34 12.2402C0.22 11.7602 0.133333 11.2202 0.08 10.6202C0.0266666 10.0069 0 9.34022 0 8.62022C0 7.92688 0.0266666 7.28022 0.08 6.68022C0.133333 6.08022 0.22 5.52688 0.34 5.02022C0.446667 4.54022 0.58 4.10022 0.74 3.70022C0.9 3.28688 1.09333 2.92022 1.32 2.60022C1.52 2.29355 1.74667 2.02688 2 1.80022C2.26667 1.57355 2.56 1.38022 2.88 1.22022C3.17333 1.08688 3.48667 0.986884 3.82 0.920218C4.16667 0.840217 4.54 0.800217 4.94 0.800217ZM11.4 17.0002V0.900217H15.1V17.0002H11.4Z" fill="#F2433A"/>
</svg>