<svg xmlns="http://www.w3.org/2000/svg" width="174" height="120" viewBox="0 0 174 120" fill="none">
  <g clip-path="url(#clip0_819_2615)">
    <path d="M95.3819 8.75098C95.3819 3.91795 91.4743 0 86.654 0C81.8337 0 77.9261 3.91795 77.9261 8.75098V111.249C77.9261 116.082 81.8337 120 86.654 120C91.4743 120 95.3819 116.082 95.3819 111.249V8.75098Z" fill="white"/>
    <path d="M48.1179 0.0044216C35.9461 -0.223513 25.9839 10.1422 25.9839 22.3484V93.6279C25.9839 95.9882 24.076 97.9033 21.7198 97.9033C19.3657 97.9033 17.4557 95.9904 17.4557 93.6279V72.2532C17.4557 67.4623 13.7738 63.2828 8.99556 63.138C4.05374 62.991 0 66.9639 0 71.8868V97.3324C0 109.539 9.96225 119.904 22.1341 119.676C33.9384 119.455 43.4396 109.792 43.4396 97.9033V26.0528C43.4396 23.6926 45.3475 21.7775 47.7036 21.7775C50.0577 21.7775 51.9677 23.6904 51.9677 26.0528V110.883C51.9677 115.676 55.6497 119.853 60.4279 119.998C65.3718 120.147 69.4234 116.174 69.4234 111.251V21.7775C69.4234 9.88868 59.9222 0.225965 48.1179 0.0044216Z" fill="white"/>
    <path d="M155.876 71.3775V93.6447C155.876 96.005 153.968 97.9201 151.611 97.9201C149.257 97.9201 147.347 96.0072 147.347 93.6447V58.8602C147.347 46.9714 137.846 37.3087 126.042 37.0872C113.87 36.8593 103.906 47.2164 103.906 59.4226C103.906 73.5056 103.906 100.672 103.906 110.584C103.906 115.377 107.588 119.548 112.366 119.693C117.31 119.842 121.361 115.869 121.361 110.946V63.1356C121.361 60.7753 123.269 58.8602 125.625 58.8602C127.98 58.8602 129.89 60.7732 129.89 63.1356V97.3492C129.89 109.555 139.852 119.921 152.024 119.693C163.828 119.472 173.329 109.809 173.329 97.9201V71.3775C173.329 66.544 169.422 62.6265 164.601 62.6265C159.781 62.6265 155.873 66.544 155.873 71.3775H155.876Z" fill="white"/>
    <path d="M125.63 30.5688C134.049 30.5688 140.874 23.7257 140.874 15.2844C140.874 6.84305 134.049 0 125.63 0C117.211 0 110.386 6.84305 110.386 15.2844C110.386 23.7257 117.211 30.5688 125.63 30.5688Z" fill="white"/>
  </g>
  <defs>
    <clipPath id="clip0_819_2615">
      <rect width="173.333" height="120" fill="white"/>
    </clipPath>
  </defs>
</svg>