<svg xmlns="http://www.w3.org/2000/svg" width="130" height="90" viewBox="0 0 130 90" fill="none">
  <g clip-path="url(#clip0_803_2620)">
    <path d="M71.5364 6.56323C71.5364 2.93846 68.6057 0 64.9905 0C61.3753 0 58.4446 2.93846 58.4446 6.56323V83.4368C58.4446 87.0615 61.3753 90 64.9905 90C68.6057 90 71.5364 87.0615 71.5364 83.4368V6.56323Z" fill="#F2433A"/>
    <path d="M36.0884 0.00337724C26.9596 -0.167574 19.4879 7.60669 19.4879 16.7613V70.221C19.4879 71.9912 18.057 73.4275 16.2898 73.4275C14.5243 73.4275 13.0918 71.9928 13.0918 70.221V54.19C13.0918 50.5968 10.3303 47.4622 6.74667 47.3535C3.0403 47.2433 0 50.223 0 53.9152V72.9994C0 82.154 7.47169 89.9283 16.6006 89.7573C25.4538 89.5912 32.5797 82.3441 32.5797 73.4275V19.5397C32.5797 17.7695 34.0106 16.3332 35.7777 16.3332C37.5433 16.3332 38.9758 17.7679 38.9758 19.5397V83.1621C38.9758 86.7569 41.7372 89.8899 45.3209 89.9986C49.0289 90.1104 52.0676 87.1308 52.0676 83.4385V16.3332C52.0676 7.41657 44.9417 0.169535 36.0884 0.00337724Z" fill="#F2433A"/>
    <path d="M116.907 53.5331V70.2336C116.907 72.0038 115.476 73.4401 113.709 73.4401C111.943 73.4401 110.51 72.0054 110.51 70.2336V44.1452C110.51 35.2286 103.385 27.9815 94.5314 27.8154C85.4025 27.6444 77.9292 35.4123 77.9292 44.567C77.9292 55.1292 77.9292 75.5043 77.9292 82.9382C77.9292 86.533 80.6906 89.6612 84.2743 89.7699C87.9823 89.8817 91.021 86.9021 91.021 83.2098V47.3517C91.021 45.5815 92.4519 44.1452 94.219 44.1452C95.9846 44.1452 97.4171 45.5799 97.4171 47.3517V73.0119C97.4171 82.1666 104.889 89.9408 114.018 89.7699C122.871 89.6037 129.997 82.3567 129.997 73.4401V53.5331C129.997 49.908 127.066 46.9699 123.451 46.9699C119.835 46.9699 116.905 49.908 116.905 53.5331H116.907Z" fill="#F2433A"/>
    <path d="M94.2223 22.9266C100.537 22.9266 105.655 17.7943 105.655 11.4633C105.655 5.13229 100.537 0 94.2223 0C87.908 0 82.7893 5.13229 82.7893 11.4633C82.7893 17.7943 87.908 22.9266 94.2223 22.9266Z" fill="#F2433A"/>
  </g>
  <defs>
    <clipPath id="clip0_803_2620">
      <rect width="130" height="90" fill="white"/>
    </clipPath>
  </defs>
</svg>